<svg xmlns="http://www.w3.org/2000/svg" viewBox="0 0 24 24"><defs></defs><title>computer-bug-search</title><line x1="17.583" y1="17.559" x2="23.539" y2="23.515" fill="none" stroke="#292929" stroke-linecap="round" stroke-linejoin="round"></line><circle cx="10.5" cy="10.5" r="10" fill="none" stroke="#292929" stroke-linecap="round" stroke-linejoin="round"></circle><path d="M13.539,13.515a3,3,0,0,1-6,0v-5h6Z" fill="none" stroke="#292929" stroke-linecap="round" stroke-linejoin="round"></path><path d="M13.539,8.515a3,3,0,1,0-6,0Z" fill="none" stroke="#292929" stroke-linecap="round" stroke-linejoin="round"></path><path d="M16.039,14.015a2.5,2.5,0,0,1,0-5" fill="none" stroke="#292929" stroke-linecap="round" stroke-linejoin="round"></path><line x1="16.039" y1="11.515" x2="13.539" y2="11.515" fill="none" stroke="#292929" stroke-linecap="round" stroke-linejoin="round"></line><path d="M5.039,14.015a2.5,2.5,0,0,0,0-5" fill="none" stroke="#292929" stroke-linecap="round" stroke-linejoin="round"></path><line x1="5.039" y1="11.515" x2="7.539" y2="11.515" fill="none" stroke="#292929" stroke-linecap="round" stroke-linejoin="round"></line><path d="M13.539,4.015a2.993,2.993,0,0,1-1.016,2.25" fill="none" stroke="#292929" stroke-linecap="round" stroke-linejoin="round"></path><path d="M8.555,6.265a2.991,2.991,0,0,1-1.016-2.25" fill="none" stroke="#292929" stroke-linecap="round" stroke-linejoin="round"></path></svg>